<svg xmlns="http://www.w3.org/2000/svg" viewBox="0 0 601.57 456.42">
    <defs>
        <style>.cls-1{fill:var(--primary-color);}</style>
    </defs>
    <g id="Слой_2" data-name="Слой 2">
        <g id="Слой_1-2" data-name="Слой 1">
            <path d="M271.52,281.28H58.37V456.41H0V.5L58.37,0V223.12H271.52Z"/>
            <path class="cls-1"
                  d="M434.38,50H423.1q26.4.18,45.92,7.2A86.38,86.38,0,0,0,434.38,50Zm-103.31,7.9,0-7.9V223.45h1Z"/>
            <path class="cls-1"
                  d="M521.07,139.33A86.58,86.58,0,0,1,487.93,205l-.19.14q-25.14,17.82-64.34,18.36h15.29a82.38,82.38,0,0,0,82.4-82.4C521.09,140.48,521.08,139.9,521.07,139.33Z"/>
            <path class="cls-1"
                  d="M499.93,269a140,140,0,0,0,79.85-157.53s0-.06,0-.08A140,140,0,0,0,487.44,8.64a214,214,0,0,0-40.35-7.08Q434.84.49,421.53.5H270.61V456.42H331l1-174.82H439.08l98,174.82h64.5v-3.76Zm-61.24-45.53H331.05V58.65H438.69a82.39,82.39,0,0,1,82.38,80.68c0,.57,0,1.15,0,1.72a82.38,82.38,0,0,1-82.4,82.4Z"/>
        </g>
    </g>
</svg>
